<svg width="41" height="41" viewBox="0 0 41 41" fill="none" xmlns="http://www.w3.org/2000/svg">
<rect width="41" height="41" rx="20.5" fill="white"/>
<path d="M24 29.288C23.376 29.288 22.864 29.088 22.464 28.688C22.064 28.272 21.864 27.72 21.864 27.032C21.864 26.328 22.216 24.352 22.92 21.104C22.504 21.008 21.832 20.96 20.904 20.96C19.976 20.96 19.088 21.04 18.24 21.2C17.424 24.88 16.992 27.344 16.944 28.592C16.368 28.912 15.152 29.072 13.296 29.072H13.056C13.104 28.368 13.528 26.264 14.328 22.76C15.144 19.256 15.648 16.624 15.84 14.864C15.84 14.608 15.76 14.304 15.6 13.952C15.44 13.584 15.28 13.288 15.12 13.064L14.856 12.728L14.928 12.368C15.872 12.096 17.368 11.96 19.416 11.96C19.608 12.28 19.704 12.8 19.704 13.52C19.704 14.24 19.344 16.224 18.624 19.472H23.256C23.816 16.624 24.104 14.592 24.12 13.376C24.12 13.104 24.104 12.88 24.072 12.704C25.352 12.208 26.64 11.96 27.936 11.96C27.984 12.056 28.008 12.296 28.008 12.68C28.008 13.56 27.616 15.824 26.832 19.472C26.064 23.12 25.68 25.44 25.68 26.432C25.68 26.864 25.752 27.08 25.896 27.08C26.04 27.08 26.528 26.872 27.36 26.456L27.792 27.344C26.368 28.64 25.104 29.288 24 29.288Z" fill="black"/>
</svg>
