<svg width="40" height="40" viewBox="0 0 40 40" fill="none" xmlns="http://www.w3.org/2000/svg">
<path d="M11.6667 15C11.6667 15.442 11.4911 15.866 11.1785 16.1785C10.866 16.4911 10.442 16.6667 10 16.6667C9.55798 16.6667 9.13406 16.4911 8.8215 16.1785C8.50894 15.866 8.33334 15.442 8.33334 15C8.33334 14.558 8.50894 14.1341 8.8215 13.8215C9.13406 13.5089 9.55798 13.3333 10 13.3333C10.442 13.3333 10.866 13.5089 11.1785 13.8215C11.4911 14.1341 11.6667 14.558 11.6667 15ZM11.6667 20C11.6667 20.442 11.4911 20.866 11.1785 21.1785C10.866 21.4911 10.442 21.6667 10 21.6667C9.55798 21.6667 9.13406 21.4911 8.8215 21.1785C8.50894 20.866 8.33334 20.442 8.33334 20C8.33334 19.558 8.50894 19.1341 8.8215 18.8215C9.13406 18.5089 9.55798 18.3333 10 18.3333C10.442 18.3333 10.866 18.5089 11.1785 18.8215C11.4911 19.1341 11.6667 19.558 11.6667 20ZM16.6667 20C16.6667 20.442 16.4911 20.866 16.1785 21.1785C15.866 21.4911 15.442 21.6667 15 21.6667C14.558 21.6667 14.1341 21.4911 13.8215 21.1785C13.5089 20.866 13.3333 20.442 13.3333 20C13.3333 19.558 13.5089 19.1341 13.8215 18.8215C14.1341 18.5089 14.558 18.3333 15 18.3333C15.442 18.3333 15.866 18.5089 16.1785 18.8215C16.4911 19.1341 16.6667 19.558 16.6667 20ZM16.6667 15C16.6667 15.442 16.4911 15.866 16.1785 16.1785C15.866 16.4911 15.442 16.6667 15 16.6667C14.558 16.6667 14.1341 16.4911 13.8215 16.1785C13.5089 15.866 13.3333 15.442 13.3333 15C13.3333 14.558 13.5089 14.1341 13.8215 13.8215C14.1341 13.5089 14.558 13.3333 15 13.3333C15.442 13.3333 15.866 13.5089 16.1785 13.8215C16.4911 14.1341 16.6667 14.558 16.6667 15ZM21.6667 15C21.6667 15.442 21.4911 15.866 21.1785 16.1785C20.866 16.4911 20.442 16.6667 20 16.6667C19.558 16.6667 19.1341 16.4911 18.8215 16.1785C18.5089 15.866 18.3333 15.442 18.3333 15C18.3333 14.558 18.5089 14.1341 18.8215 13.8215C19.1341 13.5089 19.558 13.3333 20 13.3333C20.442 13.3333 20.866 13.5089 21.1785 13.8215C21.4911 14.1341 21.6667 14.558 21.6667 15ZM21.6667 20C21.6667 20.442 21.4911 20.866 21.1785 21.1785C20.866 21.4911 20.442 21.6667 20 21.6667C19.558 21.6667 19.1341 21.4911 18.8215 21.1785C18.5089 20.866 18.3333 20.442 18.3333 20C18.3333 19.558 18.5089 19.1341 18.8215 18.8215C19.1341 18.5089 19.558 18.3333 20 18.3333C20.442 18.3333 20.866 18.5089 21.1785 18.8215C21.4911 19.1341 21.6667 19.558 21.6667 20ZM26.6667 15C26.6667 15.442 26.4911 15.866 26.1785 16.1785C25.866 16.4911 25.442 16.6667 25 16.6667C24.558 16.6667 24.1341 16.4911 23.8215 16.1785C23.5089 15.866 23.3333 15.442 23.3333 15C23.3333 14.558 23.5089 14.1341 23.8215 13.8215C24.1341 13.5089 24.558 13.3333 25 13.3333C25.442 13.3333 25.866 13.5089 26.1785 13.8215C26.4911 14.1341 26.6667 14.558 26.6667 15ZM26.6667 20C26.6667 20.442 26.4911 20.866 26.1785 21.1785C25.866 21.4911 25.442 21.6667 25 21.6667C24.558 21.6667 24.1341 21.4911 23.8215 21.1785C23.5089 20.866 23.3333 20.442 23.3333 20C23.3333 19.558 23.5089 19.1341 23.8215 18.8215C24.1341 18.5089 24.558 18.3333 25 18.3333C25.442 18.3333 25.866 18.5089 26.1785 18.8215C26.4911 19.1341 26.6667 19.558 26.6667 20ZM31.6667 15C31.6667 15.442 31.4911 15.866 31.1785 16.1785C30.866 16.4911 30.442 16.6667 30 16.6667C29.558 16.6667 29.1341 16.4911 28.8215 16.1785C28.5089 15.866 28.3333 15.442 28.3333 15C28.3333 14.558 28.5089 14.1341 28.8215 13.8215C29.1341 13.5089 29.558 13.3333 30 13.3333C30.442 13.3333 30.866 13.5089 31.1785 13.8215C31.4911 14.1341 31.6667 14.558 31.6667 15ZM31.6667 20C31.6667 20.442 31.4911 20.866 31.1785 21.1785C30.866 21.4911 30.442 21.6667 30 21.6667C29.558 21.6667 29.1341 21.4911 28.8215 21.1785C28.5089 20.866 28.3333 20.442 28.3333 20C28.3333 19.558 28.5089 19.1341 28.8215 18.8215C29.1341 18.5089 29.558 18.3333 30 18.3333C30.442 18.3333 30.866 18.5089 31.1785 18.8215C31.4911 19.1341 31.6667 19.558 31.6667 20Z" fill="#A7A7A7"/>
<path fill-rule="evenodd" clip-rule="evenodd" d="M13.2417 7.08334H26.7583C29.0367 7.08334 30.875 7.08334 32.32 7.27834C33.82 7.47834 35.0833 7.91168 36.0867 8.91334C37.09 9.91668 37.52 11.18 37.7233 12.68C37.9167 14.125 37.9167 15.9633 37.9167 18.2417V21.7583C37.9167 24.0367 37.9167 25.875 37.7233 27.32C37.52 28.82 37.09 30.0833 36.0867 31.0867C35.0833 32.09 33.82 32.52 32.32 32.7233C30.875 32.9167 29.0367 32.9167 26.7583 32.9167H13.2417C10.9633 32.9167 9.12501 32.9167 7.68001 32.7233C6.18001 32.52 4.91668 32.09 3.91334 31.0867C2.91001 30.0833 2.48001 28.82 2.27834 27.32C2.08334 25.875 2.08334 24.0367 2.08334 21.7583V18.2417C2.08334 15.9633 2.08334 14.125 2.27834 12.68C2.47834 11.18 2.91168 9.91668 3.91334 8.91334C4.91668 7.91001 6.18001 7.48001 7.68001 7.27834C9.12501 7.08334 10.9633 7.08334 13.2417 7.08334ZM8.01334 9.75501C6.79001 9.92001 6.14334 10.2217 5.68168 10.6817C5.22001 11.1433 4.92001 11.79 4.75501 13.015C4.58668 14.2717 4.58334 15.9417 4.58334 18.3333V21.6667C4.58334 24.0583 4.58668 25.7283 4.75501 26.9867C4.92001 28.21 5.22168 28.8567 5.68168 29.3183C6.14334 29.78 6.79001 30.08 8.01501 30.245C9.27168 30.4133 10.9417 30.4167 13.3333 30.4167H26.6667C29.0583 30.4167 30.7267 30.4133 31.9867 30.245C33.21 30.08 33.8567 29.7783 34.3183 29.3183C34.78 28.8567 35.08 28.21 35.245 26.985C35.4133 25.7283 35.4167 24.0583 35.4167 21.6667V18.3333C35.4167 15.9417 35.4133 14.2717 35.245 13.0133C35.08 11.79 34.7783 11.1433 34.3183 10.6817C33.8567 10.22 33.21 9.92001 31.985 9.75501C30.7267 9.58668 29.0583 9.58334 26.6667 9.58334H13.3333C10.9417 9.58334 9.27168 9.58668 8.01334 9.75501ZM10.4167 26.6667C10.4167 26.3352 10.5484 26.0172 10.7828 25.7828C11.0172 25.5484 11.3352 25.4167 11.6667 25.4167H28.3333C28.6649 25.4167 28.9828 25.5484 29.2172 25.7828C29.4516 26.0172 29.5833 26.3352 29.5833 26.6667C29.5833 26.9982 29.4516 27.3161 29.2172 27.5506C28.9828 27.785 28.6649 27.9167 28.3333 27.9167H11.6667C11.3352 27.9167 11.0172 27.785 10.7828 27.5506C10.5484 27.3161 10.4167 26.9982 10.4167 26.6667Z" fill="#A7A7A7"/>
</svg>
